# xmcd
#
# Track frame offsets: 
#        150
#        10927
#        24987
#        36695
#        47660
#        59250
#        69977
#        84147
#        94435
#        106227
#        117332
#        126082
#        136085
#        145592
#        156237
#
# Disc length: 2238 seconds
#
# Revision: 4
# Processed by: cddbd v1.5.2PL0 Copyright (c) Steve Scherf et al.
# Submitted via: ExactAudioCopy v0.99pb5
#
DISCID=c308bc0f
DTITLE=Various Artist - Classic Country Vol. 10 The Nashville Era 1958-1963 D
DTITLE=isc 1
DYEAR=1999
DGENRE=Country
TTITLE0=Buck Owens - Act Naturally
TTITLE1=Eddy Arnold - Tennessee Stud
TTITLE2=Faron Young - Country Girl
TTITLE3=George Jones - Tender Years
TTITLE4=Skeeter Davis - My Last Date (With You)
TTITLE5=Leroy Van Dyke - If A Woman Answers (Hang Up The Phone)
TTITLE6=Elvis Presley - Are You Lonesome Tonight
TTITLE7=Everly Brothers - Bird Dog
TTITLE8=Porter Wagoner - Misery Loves Company
TTITLE9=Patsy Cline - Leavin' On Your Mind
TTITLE10=Don Gibson - Blue Blue Day
TTITLE11=Wilburn Brothers - Trouble's Back In Town
TTITLE12=Burl Ives - A Little Bitty Tear
TTITLE13=Floyd Cramer - San Antonio Rose
TTITLE14=Johnny Horton - When It's Springtime In Alaska (It's Forty Be
TTITLE14=low)
EXTD=
EXTT0=
EXTT1=
EXTT2=
EXTT3=
EXTT4=
EXTT5=
EXTT6=
EXTT7=
EXTT8=
EXTT9=
EXTT10=
EXTT11=
EXTT12=
EXTT13=
EXTT14=
PLAYORDER=
